<?xml version="1.0" encoding="UTF-8"?>
<svg width="512" height="512" cursor="default" enable-background="new" version="1.1" viewBox="0 0 440 440" xmlns="http://www.w3.org/2000/svg" xmlns:xlink="http://www.w3.org/1999/xlink">
 <defs>
  <linearGradient id="linearGradient1219" x1="444.21" x2="777.79" y1="38" y2="38" gradientUnits="userSpaceOnUse">
   <stop stop-color="#fff" offset="0"/>
   <stop stop-color="#fff" stop-opacity="0" offset="1"/>
  </linearGradient>
  <radialGradient id="radialGradient2067" cx="611" cy="38" r="166.79" gradientUnits="userSpaceOnUse">
   <stop stop-color="#ffa500" offset="0"/>
   <stop stop-color="#dd8f00" offset="1"/>
  </radialGradient>
 </defs>
 <radialGradient id="a" cx="611" cy="41.267" r="160.5" gradientTransform="matrix(1.1673 0 0 1.4197 -102.24 -19.722)" gradientUnits="userSpaceOnUse">
  <stop stop-color="#01fd00" offset="0"/>
  <stop stop-color="#009d39" offset="1"/>
 </radialGradient>
 <radialGradient id="b" cx="873.78" cy="-16.38" r="55.747" gradientTransform="matrix(1.9295 -1.114 1.155 2.0006 -1087.7 1104.9)" gradientUnits="userSpaceOnUse">
  <stop stop-color="#f9f9f9" offset="0"/>
  <stop stop-color="#fff" offset="1"/>
 </radialGradient>
 <linearGradient id="c" x1="611.14" x2="610.57" y1="234.57" y2="-110.92" gradientUnits="userSpaceOnUse">
  <stop stop-color="#f2f2f2" offset="0"/>
  <stop stop-color="#f2f2f2" offset="1"/>
 </linearGradient>
 <g transform="translate(-390.57 181.57)">
  <path d="m391.02-182.84h439.96v439.96h-439.96z" fill="#fff" stroke="#58dd58" stroke-linejoin="round" stroke-width=".040996" visibility="hidden"/>
  <circle cx="611" cy="38" r="187.78" fill="url(#c)"/>
  <circle cx="611" cy="38" r="166.29" fill="url(#a)" stroke="#fff" stroke-linejoin="round" stroke-width="3"/>
  <path d="m571.16 108.31 110-64-110-64z" fill="url(#b)" fill-rule="evenodd"/>
  <g fill="#c7efc4" fill-rule="evenodd">
   <rect transform="matrix(-.83616 -.54848 .54848 -.83616 0 0)" x="-542.47" y="419.41" width="14" height="32" ry="7" opacity=".5"/>
   <rect transform="matrix(-.45721 -.88936 .88936 -.45721 0 0)" x="-320.16" y="642.98" width="14" height="32" ry="7" opacity=".5"/>
   <rect transform="rotate(-90)" x="-48.536" y="718.75" width="18" height="41" ry="9" opacity=".5"/>
   <rect transform="matrix(.47159 -.88182 .88182 .47159 0 0)" x="244.41" y="673.8" width="14" height="32" ry="7" opacity=".5"/>
   <rect transform="matrix(-.85036 .5262 -.5262 -.85036 0 0)" x="-505.88" y="-503.87" width="14" height="32" ry="7" opacity=".5"/>
   <rect transform="scale(-1)" x="-620.3" y="-187.94" width="18" height="41" ry="9" opacity=".5"/>
   <rect transform="matrix(-.84033 -.54207 .54207 -.84033 0 0)" x="-539.17" y="148.58" width="14" height="32" ry="7" opacity=".5"/>
   <rect transform="matrix(-.45721 -.88936 .88936 -.45721 0 0)" x="-319.73" y="374.8" width="14" height="32" ry="7" opacity=".5"/>
   <rect transform="rotate(-90)" x="-48.536" y="460.96" width="18" height="41" ry="9" opacity=".5"/>
   <rect transform="matrix(.47159 -.88182 .88182 .47159 0 0)" x="250.84" y="406.2" width="14" height="32" ry="7" opacity=".5"/>
   <rect transform="matrix(-.8493 .5279 -.5279 -.8493 0 0)" x="-505.96" y="-236.96" width="14" height="32" ry="7" opacity=".5"/>
   <g transform="scale(-1)">
    <rect x="-633.03" y="69.121" width="18" height="41" ry="9" opacity=".5"/>
    <rect x="-606.76" y="69.121" width="18" height="41" ry="9" opacity=".5"/>
   </g>
  </g>
  <g stroke-width="1.0003">
   <path d="m391.02-182.84h439.96v439.96h-439.96z" fill="#fff" stroke="#58dd58" stroke-linejoin="round" visibility="hidden"/>
   <circle cx="611" cy="38" r="187.78" fill="url(#c)"/>
   <circle cx="611" cy="38" r="166.29" fill="url(#radialGradient2067)" stroke="url(#linearGradient1219)" stroke-linejoin="round"/>
  </g>
  <g>
   <g fill="#efebc4" fill-rule="evenodd">
    <rect transform="matrix(-.83616 -.54848 .54848 -.83616 0 0)" x="-542.47" y="419.41" width="14" height="32" ry="7" opacity=".5"/>
    <rect transform="matrix(-.45721 -.88936 .88936 -.45721 0 0)" x="-320.16" y="642.98" width="14" height="32" ry="7" opacity=".5"/>
    <rect transform="rotate(-90)" x="-48.536" y="718.75" width="18" height="41" ry="9" opacity=".5"/>
    <rect transform="matrix(.47159 -.88182 .88182 .47159 0 0)" x="244.41" y="673.8" width="14" height="32" ry="7" opacity=".5"/>
    <rect transform="matrix(-.85036 .5262 -.5262 -.85036 0 0)" x="-505.88" y="-503.87" width="14" height="32" ry="7" opacity=".5"/>
    <rect transform="scale(-1)" x="-620.3" y="-187.94" width="18" height="41" ry="9" opacity=".5"/>
    <rect transform="matrix(-.84033 -.54207 .54207 -.84033 0 0)" x="-539.17" y="148.58" width="14" height="32" ry="7" opacity=".5"/>
    <rect transform="matrix(-.45721 -.88936 .88936 -.45721 0 0)" x="-319.73" y="374.8" width="14" height="32" ry="7" opacity=".5"/>
    <rect transform="rotate(-90)" x="-48.536" y="460.96" width="18" height="41" ry="9" opacity=".5"/>
    <rect transform="matrix(.47159 -.88182 .88182 .47159 0 0)" x="250.84" y="406.2" width="14" height="32" ry="7" opacity=".5"/>
    <rect transform="matrix(-.8493 .5279 -.5279 -.8493 0 0)" x="-505.96" y="-236.96" width="14" height="32" ry="7" opacity=".5"/>
    <g transform="scale(-1)">
     <rect x="-633.03" y="69.121" width="18" height="41" ry="9" opacity=".5"/>
     <rect x="-606.76" y="69.121" width="18" height="41" ry="9" opacity=".5"/>
    </g>
   </g>
   <rect x="556.73" y="8.5219" width="107.28" height="23.944" fill="#f7e7c4"/>
   <rect x="556.8" y="48.549" width="107.28" height="23.944" fill="#f7e7c4"/>
  </g>
 </g>
</svg>
